<svg width="31" height="32" viewBox="0 0 31 32" fill="none" xmlns="http://www.w3.org/2000/svg">
<path d="M5.77578 6.3749H28.8758L25.9883 18.8874H8.66328M25.9883 22.7374H9.62578L4.81328 2.5249H1.92578" stroke="black" stroke-width="2.2" stroke-linecap="round" stroke-linejoin="round"/>
<path d="M24.0637 28.5126C25.1268 28.5126 25.9887 27.6507 25.9887 26.5876C25.9887 25.5244 25.1268 24.6626 24.0637 24.6626C23.0005 24.6626 22.1387 25.5244 22.1387 26.5876C22.1387 27.6507 23.0005 28.5126 24.0637 28.5126Z" stroke="black" stroke-width="2.2" stroke-linecap="round" stroke-linejoin="round"/>
<path d="M11.55 28.5126C12.6131 28.5126 13.475 27.6507 13.475 26.5876C13.475 25.5244 12.6131 24.6626 11.55 24.6626C10.4869 24.6626 9.625 25.5244 9.625 26.5876C9.625 27.6507 10.4869 28.5126 11.55 28.5126Z" stroke="black" stroke-width="2.2" stroke-linecap="round" stroke-linejoin="round"/>
</svg>
