<svg width="138" height="60" viewBox="0 0 138 60" fill="none" xmlns="http://www.w3.org/2000/svg">
<path d="M125.186 25.7958C120.889 30.1955 112.519 36.8375 108.361 35.9596C108.116 35.9011 107.889 35.7877 107.695 35.6282C107.502 35.4686 107.348 35.2672 107.245 35.0395C104.822 30.809 108.313 16.8957 110.251 11.2109C110.784 9.67738 109.893 8.93703 109.61 8.74666C108.542 8.01689 107.181 8.21784 102.441 11.4701C99.9217 13.194 96.5694 15.7006 92.4806 18.8735C89.8756 20.9148 87.2974 22.993 85.0875 24.791C83.8901 25.5626 82.7486 26.416 81.6712 27.3452C82.0022 25.8592 82.4399 24.1088 83.0004 22.057C83.8277 19.0269 84.7192 16.0919 85.4024 13.9291C85.967 12.7212 86.3742 11.4471 86.6142 10.1374L83.6035 9.41297C83.6035 9.44469 83.1124 10.8672 82.4292 13.0407C79.0342 20.4441 69.3085 31.5493 65.9136 33.7809C65.8251 32.7911 65.7948 31.797 65.8228 30.8037C65.8228 27.3716 65.8655 23.0988 62.3852 22.8079C59.4439 22.5753 56.2945 26.0496 52.9637 29.7355C51.4851 31.3748 49.0936 34.0189 47.978 34.5371C47.7271 33.929 47.2414 31.9406 47.7271 26.1078C47.7819 25.4434 47.6133 24.7798 47.2476 24.2203C46.8818 23.6609 46.3395 23.237 45.7052 23.0149C45.0708 22.7927 44.3801 22.7848 43.7407 22.9922C43.1013 23.1996 42.5491 23.6108 42.1703 24.1617C40.4034 26.7582 37.8306 30.5869 35.626 34.0771C35.0382 35.0292 34.3836 35.9393 33.6669 36.8005C33.6125 36.8699 33.536 36.9192 33.4498 36.9403C33.3636 36.9614 33.2727 36.9531 33.1919 36.9168C33.1044 36.8863 33.0298 36.8274 32.9804 36.7496C32.931 36.6719 32.9096 36.5798 32.9196 36.4885L35.231 0.190375L32.1243 0L30.7951 20.9729L30.6563 20.9359L30.2293 20.846C27.2347 20.222 23.1351 19.3653 14.7492 23.7492C10.5087 25.9454 6.74949 28.9524 3.68897 32.5964C0.758429 36.187 -0.485316 39.5926 0.171253 42.1838C0.705049 44.2145 2.9203 45.7798 5.85618 46.187C6.07504 46.187 6.33126 46.2399 6.61951 46.261C10.3561 46.4884 19.8683 45.2404 30.256 29.5081L29.8289 36.2981C29.7752 37.0336 29.9594 37.7669 30.3549 38.3917C30.7503 39.0164 31.3365 39.5001 32.0282 39.7724C32.3873 39.9168 32.7677 40.0026 33.1545 40.0263C33.6982 40.0602 34.2423 39.9663 34.7423 39.7522C35.2423 39.538 35.6842 39.2097 36.0317 38.7941C36.8481 37.8213 37.5921 36.7909 38.2576 35.7111C40.3928 32.3478 42.8589 28.662 44.6151 26.076C44.0066 33.7016 44.9033 35.8063 45.7574 36.7846C45.9785 37.0484 46.2516 37.2647 46.56 37.4202C46.8684 37.5756 47.2056 37.6671 47.551 37.6889C49.7128 37.8264 51.8961 35.5313 55.2857 31.7873C57.3141 29.5398 60.7037 25.7852 62.1129 25.8751H62.1556C62.7428 26.314 62.7268 29.4446 62.7161 30.7772C62.7161 33.617 62.6894 35.8592 64.2481 36.8005C64.6704 37.0357 65.1494 37.1526 65.6337 37.1386C66.118 37.1246 66.5894 36.9803 66.9972 36.7211C69.5434 35.3938 74.844 29.8835 79.3118 23.8761C76.5041 34.9813 77.5663 36.8745 78.8047 37.7735C81.2015 39.508 88.4664 40.0368 93.2172 37.1759C96.4734 35.2087 97.9199 31.9353 97.2901 27.9586C96.6602 23.9819 94.6211 22.7603 93.0197 22.4007H92.9823C98.7313 17.8635 103.808 14.093 106.599 12.4061C104.998 17.6943 101.438 31.0998 104.528 36.5308C104.85 37.1351 105.299 37.6637 105.845 38.0807C106.392 38.4977 107.022 38.7933 107.694 38.9475C108.019 39.0159 108.349 39.0601 108.681 39.0797C115.898 39.5292 126.238 29.1802 127.444 27.9428L125.186 25.7958ZM30.0265 23.9925C21.1494 39.2859 11.9415 43.8919 6.28322 43.1357C4.27081 42.8607 3.32065 41.9459 3.20321 41.4329C2.35982 38.1172 7.86325 30.8565 16.2332 26.4726C21.3736 23.781 24.5444 23.2997 26.9091 23.4478C27.8187 23.5169 28.7217 23.6548 29.6101 23.8603L30.0585 23.9502C30.0592 23.955 30.059 23.96 30.0578 23.9648C30.0566 23.9696 30.0544 23.9741 30.0514 23.978C30.0485 23.9819 30.0447 23.9853 30.0404 23.9877C30.0361 23.9902 30.0314 23.9918 30.0265 23.9925ZM92.3471 25.4097C92.7101 25.489 93.8151 25.7323 94.2421 28.4346C94.6691 31.1368 93.8204 33.1939 91.6158 34.5477C88.0234 36.7159 82.2904 36.2452 80.7958 35.3621C80.721 35.1453 80.5823 34.4737 80.7637 32.718C81.0934 32.2806 81.4499 31.8638 81.8313 31.47C83.4701 30.1003 85.1409 28.7254 86.7956 27.3716C88.8294 26.0179 90.9219 25.0977 92.3471 25.4097Z" fill="black"/>
<path d="M135.142 9.87295C135.157 9.70058 135.136 9.52708 135.081 9.36292C135.026 9.19877 134.938 9.04737 134.822 8.91787C134.706 8.78837 134.565 8.68347 134.407 8.60948C134.25 8.5355 134.078 8.49399 133.904 8.48744L132.478 8.40283L132.238 12.2526L132.815 12.2896L132.89 11.0416L133.658 11.0892L134.368 12.3848L135.014 12.4271L134.251 11.0311C134.503 10.9541 134.724 10.8011 134.884 10.5934C135.043 10.3858 135.134 10.1339 135.142 9.87295ZM132.916 10.5022L133.023 8.98982L133.872 9.0427C134.068 9.06565 134.248 9.1623 134.375 9.3128C134.502 9.4633 134.566 9.65621 134.554 9.85189C134.541 10.0476 134.454 10.2311 134.309 10.3649C134.164 10.4986 133.974 10.5724 133.776 10.571L132.916 10.5022Z" fill="black"/>
<path d="M133.871 6.11834C133.002 6.0646 132.136 6.26741 131.383 6.70113C130.631 7.13485 130.024 7.78 129.642 8.555C129.259 9.33001 129.117 10.2001 129.233 11.0552C129.349 11.9103 129.719 12.712 130.295 13.359C130.871 14.006 131.628 14.4692 132.47 14.69C133.312 14.9109 134.201 14.8794 135.025 14.5997C135.849 14.32 136.57 13.8045 137.099 13.1185C137.627 12.4324 137.938 11.6066 137.992 10.7455C138.063 9.59117 137.668 8.45629 136.896 7.58914C136.124 6.72198 135.036 6.19315 133.871 6.11834ZM133.338 14.278C132.578 14.2306 131.85 13.9611 131.245 13.5037C130.64 13.0463 130.185 12.4215 129.939 11.7083C129.692 10.995 129.665 10.2254 129.86 9.49661C130.054 8.76782 130.463 8.11262 131.034 7.61381C131.604 7.11501 132.311 6.79499 133.065 6.69422C133.82 6.59344 134.587 6.71643 135.271 7.04764C135.954 7.37884 136.523 7.9034 136.906 8.555C137.289 9.20661 137.468 9.95601 137.421 10.7085C137.357 11.7151 136.893 12.6554 136.13 13.3242C135.368 13.993 134.37 14.3359 133.354 14.278H133.338Z" fill="black"/>
<path d="M2.37109 59.8468V52.4751H4.7198C7.09519 52.4751 8.45637 53.9769 8.45637 56.1345C8.48249 56.6275 8.40373 57.1203 8.22519 57.5812C8.04665 58.042 7.77232 58.4605 7.42 58.8095C7.06767 59.1586 6.64523 59.4303 6.18005 59.6072C5.71488 59.7841 5.21737 59.8621 4.7198 59.8362L2.37109 59.8468ZM3.50808 58.8738H4.66642C6.3799 58.8738 7.30337 57.8162 7.30337 56.1345C7.30337 54.4529 6.39058 53.4534 4.66642 53.4534H3.50808V58.8738Z" fill="black"/>
<path d="M11.7715 54.9597V54.4044C12.0058 54.4391 12.2448 54.3864 12.442 54.2565C12.6393 54.1265 12.7808 53.9286 12.8391 53.7011C12.7632 53.7254 12.684 53.7379 12.6042 53.7381C12.5176 53.7416 12.4312 53.7279 12.3501 53.6977C12.269 53.6674 12.1948 53.6213 12.1321 53.5621C12.0693 53.5029 12.0192 53.4318 11.9848 53.353C11.9503 53.2742 11.9323 53.1894 11.9316 53.1035C11.9311 53.0071 11.9511 52.9117 11.9902 52.8235C12.0294 52.7353 12.0868 52.6562 12.1588 52.5914C12.2307 52.5266 12.3157 52.4774 12.408 52.4472C12.5004 52.417 12.5982 52.4064 12.695 52.416C13.2287 52.416 13.565 52.8179 13.565 53.4102C13.5614 53.6325 13.5107 53.8515 13.4162 54.0531C13.3217 54.2546 13.1854 54.4343 13.0163 54.5804C12.8472 54.7265 12.649 54.8357 12.4346 54.9011C12.2201 54.9664 11.9942 54.9864 11.7715 54.9597Z" fill="black"/>
<path d="M18.5344 54.088V59.8468H17.4668V52.4751H18.7105L22.5379 58.0806V52.4751H23.6054V59.8468H22.4525L18.5344 54.088Z" fill="black"/>
<path d="M27.3682 56.1498C27.3882 55.4127 27.6271 54.6977 28.0552 54.0944C28.4832 53.491 29.0813 53.0262 29.7747 52.7579C30.4681 52.4896 31.2259 52.4299 31.9534 52.5861C32.6808 52.7423 33.3457 53.1076 33.8646 53.6363C34.3836 54.165 34.7337 54.8335 34.8711 55.5583C35.0085 56.283 34.9271 57.0318 34.6371 57.711C34.3471 58.3902 33.8613 58.9695 33.2407 59.3766C32.62 59.7837 31.8919 60.0004 31.1475 59.9996C30.6404 60.0058 30.1373 59.9096 29.669 59.7169C29.2006 59.5243 28.7767 59.2392 28.4231 58.879C28.0695 58.5188 27.7937 58.0911 27.6123 57.6219C27.431 57.1527 27.3479 56.6518 27.3682 56.1498ZM33.7471 56.1498C33.7471 54.5634 32.7222 53.3418 31.1475 53.3418C29.5728 53.3418 28.5479 54.5687 28.5479 56.1498C28.5479 57.731 29.5728 58.9843 31.1475 58.9843C32.7222 58.9843 33.7471 57.731 33.7471 56.1498Z" fill="black"/>
<path d="M41.4294 59.8468H38.707V52.4751H41.2853C42.7906 52.4751 43.6927 53.1678 43.6927 54.4053C43.6831 54.7523 43.5694 55.0886 43.3659 55.3712C43.1624 55.6538 42.8784 55.8698 42.5504 55.9917C42.9535 56.0686 43.3166 56.2833 43.5761 56.5984C43.8356 56.9136 43.9752 57.309 43.9703 57.7157C43.9703 59.08 42.9774 59.8468 41.4294 59.8468ZM39.7533 53.3794V55.6004H41.2159C42.1126 55.6004 42.6037 55.1774 42.6037 54.4899C42.6037 53.8024 42.1126 53.3794 41.2159 53.3794H39.7533ZM39.7533 56.4994V58.9425H41.3547C42.3262 58.9425 42.876 58.4825 42.876 57.7051C42.876 56.9277 42.3422 56.4994 41.3547 56.4994H39.7533Z" fill="black"/>
<path d="M47.877 59.8468V52.4751H49.0193V58.8209H52.3875V59.8362L47.877 59.8468Z" fill="black"/>
<path d="M60.8111 59.8468H56.0977V52.4751H60.7363V53.464H57.2346V55.5793H60.4374V56.5629H57.2346V58.8844H60.8111V59.8468Z" fill="black"/>
<path d="M67.3385 59.9521C65.5503 59.9521 64.4613 58.9738 64.3652 57.509H65.5289C65.577 58.4397 66.1801 59.0479 67.3171 59.0479C68.2619 59.0479 68.9666 58.6037 68.9666 57.8474C68.9666 57.2287 68.5609 56.922 67.7015 56.7369L66.6339 56.5307C65.5663 56.3245 64.6375 55.8009 64.6375 54.5529C64.6375 53.3049 65.7264 52.353 67.2584 52.353C68.7904 52.353 69.9701 53.289 70.0662 54.7539H68.9132C68.907 54.5487 68.8597 54.3469 68.7739 54.1601C68.6881 53.9733 68.5656 53.8053 68.4135 53.666C68.2614 53.5267 68.0828 53.4187 67.8882 53.3486C67.6935 53.2784 67.4867 53.2474 67.2798 53.2573C66.3136 53.2573 65.7851 53.8231 65.7851 54.4577C65.7851 55.0923 66.399 55.4043 67.0929 55.5471L68.1925 55.7639C69.463 56.0177 70.1783 56.573 70.1783 57.6729C70.1783 58.9738 69.1427 59.9521 67.3385 59.9521Z" fill="black"/>
<path d="M78.8477 59.8468V52.4751H79.9846V58.8209H83.3529V59.8362L78.8477 59.8468Z" fill="black"/>
<path d="M87.0625 59.8468V52.4751H88.2048V59.8468H87.0625Z" fill="black"/>
<path d="M93.4582 54.2149V59.8468H92.3906V52.4751H93.7892L96.2873 58.4613L98.7748 52.4751H100.184V59.8468H99.1164V54.2043L96.7517 59.8468H95.7802L93.4582 54.2149Z" fill="black"/>
<path d="M104.406 59.8468V52.4751H105.543V59.8468H104.406Z" fill="black"/>
<path d="M111.564 59.8468V53.501H109.141V52.4751H115.13V53.4957H112.706V59.8415L111.564 59.8468Z" fill="black"/>
<path d="M123.44 59.8468H118.727V52.4751H123.371V53.464H119.864V55.5793H123.066V56.5629H119.864V58.8844H123.44V59.8468Z" fill="black"/>
<path d="M127.369 59.8468V52.4751H129.713C132.083 52.4751 133.449 53.9769 133.449 56.1345C133.475 56.6275 133.396 57.1203 133.218 57.5812C133.039 58.042 132.765 58.4605 132.413 58.8095C132.06 59.1586 131.638 59.4303 131.173 59.6072C130.708 59.7841 130.21 59.8621 129.713 59.8362L127.369 59.8468ZM128.511 58.8738H129.67C131.378 58.8738 132.301 57.8162 132.301 56.1345C132.301 54.4529 131.389 53.4534 129.67 53.4534H128.511V58.8738Z" fill="black"/>
</svg>
