<svg width="138" height="61" viewBox="0 0 138 61" fill="none" xmlns="http://www.w3.org/2000/svg">
<path d="M125.186 26.2958C120.889 30.6955 112.519 37.3375 108.361 36.4596C108.116 36.4011 107.889 36.2877 107.695 36.1282C107.502 35.9686 107.348 35.7672 107.245 35.5395C104.822 31.309 108.313 17.3957 110.251 11.7109C110.784 10.1774 109.893 9.43703 109.61 9.24666C108.542 8.51689 107.181 8.71784 102.441 11.9701C99.9217 13.694 96.5694 16.2006 92.4806 19.3735C89.8756 21.4148 87.2974 23.493 85.0875 25.291C83.8901 26.0626 82.7486 26.916 81.6712 27.8452C82.0022 26.3592 82.4399 24.6088 83.0004 22.557C83.8277 19.5269 84.7192 16.5919 85.4024 14.4291C85.967 13.2212 86.3742 11.9471 86.6141 10.6374L83.6035 9.91297C83.6035 9.94469 83.1124 11.3672 82.4292 13.5407C79.0342 20.9441 69.3085 32.0493 65.9135 34.2809C65.8251 33.2911 65.7948 32.297 65.8228 31.3037C65.8228 27.8716 65.8655 23.5988 62.3852 23.3079C59.4439 23.0753 56.2945 26.5496 52.9637 30.2355C51.485 31.8748 49.0936 34.5189 47.978 35.0371C47.7271 34.429 47.2414 32.4406 47.7271 26.6078C47.7819 25.9434 47.6133 25.2798 47.2476 24.7203C46.8818 24.1609 46.3395 23.737 45.7051 23.5149C45.0708 23.2927 44.3801 23.2848 43.7407 23.4922C43.1013 23.6996 42.5491 24.1108 42.1703 24.6617C40.4034 27.2582 37.8305 31.0869 35.626 34.5771C35.0382 35.5292 34.3836 36.4393 33.6669 37.3005C33.6125 37.3699 33.536 37.4192 33.4498 37.4403C33.3636 37.4614 33.2727 37.4531 33.1919 37.4168C33.1044 37.3863 33.0298 37.3274 32.9804 37.2496C32.931 37.1719 32.9095 37.0798 32.9196 36.9885L35.231 0.690375L32.1243 0.5L30.7951 21.4729L30.6563 21.4359L30.2293 21.346C27.2347 20.722 23.1351 19.8653 14.7492 24.2492C10.5087 26.4454 6.74949 29.4524 3.68897 33.0964C0.758429 36.687 -0.485316 40.0926 0.171253 42.6838C0.705049 44.7145 2.9203 46.2798 5.85618 46.687C6.07504 46.687 6.33126 46.7399 6.61951 46.761C10.3561 46.9884 19.8683 45.7404 30.256 30.0081L29.8289 36.7981C29.7752 37.5336 29.9594 38.2669 30.3549 38.8917C30.7503 39.5164 31.3365 40.0001 32.0282 40.2724C32.3873 40.4168 32.7677 40.5026 33.1545 40.5263C33.6982 40.5602 34.2423 40.4663 34.7423 40.2522C35.2423 40.038 35.6842 39.7097 36.0317 39.2941C36.8481 38.3213 37.5921 37.2909 38.2576 36.2111C40.3928 32.8478 42.8589 29.162 44.6151 26.576C44.0066 34.2016 44.9033 36.3063 45.7574 37.2846C45.9785 37.5484 46.2516 37.7647 46.56 37.9202C46.8684 38.0757 47.2056 38.1671 47.551 38.1889C49.7128 38.3264 51.8961 36.0313 55.2857 32.2873C57.3141 30.0398 60.7037 26.2852 62.1129 26.3751H62.1556C62.7428 26.814 62.7268 29.9446 62.7161 31.2772C62.7161 34.117 62.6894 36.3592 64.2481 37.3005C64.6704 37.5357 65.1494 37.6526 65.6337 37.6386C66.118 37.6246 66.5893 37.4803 66.9971 37.2211C69.5434 35.8938 74.844 30.3835 79.3118 24.3761C76.5041 35.4813 77.5663 37.3745 78.8047 38.2735C81.2015 40.008 88.4664 40.5368 93.2172 37.6759C96.4734 35.7087 97.9199 32.4353 97.2901 28.4586C96.6602 24.4819 94.6211 23.2603 93.0197 22.9007H92.9823C98.7313 18.3635 103.808 14.593 106.599 12.9061C104.998 18.1943 101.438 31.5998 104.528 37.0308C104.85 37.6351 105.299 38.1637 105.845 38.5807C106.392 38.9977 107.022 39.2933 107.694 39.4475C108.019 39.5159 108.349 39.5601 108.681 39.5797C115.898 40.0292 126.238 29.6802 127.444 28.4428L125.186 26.2958ZM30.0265 24.4925C21.1494 39.7859 11.9415 44.3919 6.28322 43.6357C4.27081 43.3607 3.32065 42.4459 3.20321 41.9329C2.35982 38.6172 7.86325 31.3565 16.2332 26.9726C21.3736 24.281 24.5444 23.7997 26.9091 23.9478C27.8187 24.0169 28.7217 24.1548 29.6101 24.3603L30.0585 24.4502C30.0592 24.455 30.059 24.46 30.0578 24.4648C30.0566 24.4696 30.0544 24.4741 30.0514 24.478C30.0485 24.4819 30.0447 24.4853 30.0404 24.4877C30.0361 24.4902 30.0314 24.4918 30.0265 24.4925ZM92.3471 25.9097C92.7101 25.989 93.8151 26.2323 94.2421 28.9346C94.6691 31.6368 93.8204 33.6939 91.6158 35.0477C88.0234 37.2159 82.2904 36.7452 80.7958 35.8621C80.721 35.6453 80.5823 34.9737 80.7637 33.218C81.0934 32.7806 81.4499 32.3638 81.8313 31.97C83.4701 30.6003 85.1409 29.2254 86.7956 27.8716C88.8294 26.5179 90.9219 25.5977 92.3471 25.9097Z" fill="white"/>
<path d="M135.142 10.3725C135.157 10.2001 135.136 10.0266 135.081 9.86243C135.026 9.69828 134.938 9.54688 134.822 9.41738C134.706 9.28789 134.565 9.18298 134.407 9.109C134.25 9.03502 134.078 8.9935 133.904 8.98695L132.478 8.90234L132.238 12.7521L132.815 12.7892L132.89 11.5411L133.658 11.5887L134.368 12.8843L135.014 12.9267L134.251 11.5306C134.503 11.4536 134.724 11.3006 134.884 11.093C135.043 10.8853 135.134 10.6334 135.142 10.3725ZM132.916 11.0018L133.023 9.48933L133.872 9.54221C134.068 9.56516 134.248 9.66181 134.375 9.81231C134.502 9.96281 134.566 10.1557 134.554 10.3514C134.541 10.5471 134.454 10.7306 134.309 10.8644C134.164 10.9981 133.974 11.0719 133.776 11.0705L132.916 11.0018Z" fill="white"/>
<path d="M133.871 6.61882C133.002 6.56508 132.136 6.7679 131.383 7.20161C130.631 7.63533 130.024 8.28048 129.642 9.05549C129.259 9.83049 129.117 10.7005 129.233 11.5556C129.349 12.4107 129.719 13.2125 130.295 13.8595C130.871 14.5065 131.628 14.9697 132.47 15.1905C133.312 15.4114 134.201 15.3799 135.025 15.1002C135.849 14.8205 136.57 14.305 137.099 13.6189C137.627 12.9329 137.938 12.1071 137.992 11.246C138.063 10.0917 137.668 8.95678 136.896 8.08963C136.124 7.22247 135.036 6.69364 133.871 6.61882ZM133.338 14.7785C132.578 14.731 131.85 14.4616 131.245 14.0042C130.64 13.5468 130.185 12.922 129.939 12.2088C129.692 11.4955 129.665 10.7259 129.86 9.9971C130.054 9.26831 130.463 8.61311 131.034 8.1143C131.604 7.6155 132.311 7.29548 133.065 7.19471C133.82 7.09393 134.587 7.21692 135.271 7.54813C135.954 7.87933 136.523 8.40389 136.906 9.05549C137.289 9.70709 137.468 10.4565 137.421 11.209C137.357 12.2156 136.893 13.1559 136.13 13.8247C135.368 14.4935 134.37 14.8364 133.354 14.7785H133.338Z" fill="white"/>
<path d="M2.37109 60.3463V52.9746H4.7198C7.09519 52.9746 8.45637 54.4765 8.45637 56.634C8.48249 57.127 8.40373 57.6198 8.22519 58.0807C8.04665 58.5415 7.77232 58.96 7.42 59.3091C7.06767 59.6581 6.64523 59.9299 6.18005 60.1067C5.71488 60.2836 5.21737 60.3616 4.7198 60.3358L2.37109 60.3463ZM3.50808 59.3733H4.66642C6.3799 59.3733 7.30337 58.3157 7.30337 56.634C7.30337 54.9524 6.39058 53.9529 4.66642 53.9529H3.50808V59.3733Z" fill="white"/>
<path d="M11.7715 55.4601V54.9049C12.0058 54.9396 12.2448 54.8869 12.442 54.7569C12.6393 54.627 12.7808 54.4291 12.8391 54.2016C12.7632 54.2259 12.684 54.2384 12.6042 54.2386C12.5176 54.2421 12.4312 54.2284 12.3501 54.1981C12.269 54.1679 12.1948 54.1218 12.1321 54.0626C12.0693 54.0034 12.0192 53.9323 11.9848 53.8535C11.9503 53.7747 11.9323 53.6898 11.9316 53.604C11.9311 53.5076 11.9511 53.4122 11.9902 53.324C12.0294 53.2358 12.0868 53.1567 12.1588 53.0919C12.2307 53.027 12.3157 52.9779 12.408 52.9477C12.5004 52.9175 12.5982 52.9069 12.695 52.9165C13.2287 52.9165 13.565 53.3184 13.565 53.9107C13.5614 54.133 13.5107 54.352 13.4162 54.5535C13.3217 54.7551 13.1854 54.9348 13.0163 55.0809C12.8472 55.227 12.649 55.3362 12.4346 55.4015C12.2201 55.4669 11.9942 55.4868 11.7715 55.4601Z" fill="white"/>
<path d="M18.5344 54.5875V60.3463H17.4668V52.9746H18.7105L22.5379 58.5801V52.9746H23.6054V60.3463H22.4525L18.5344 54.5875Z" fill="white"/>
<path d="M27.3682 56.6498C27.3882 55.9127 27.6271 55.1977 28.0552 54.5944C28.4832 53.991 29.0813 53.5262 29.7747 53.2579C30.4681 52.9896 31.2259 52.9299 31.9534 53.0861C32.6808 53.2423 33.3457 53.6076 33.8646 54.1363C34.3836 54.665 34.7337 55.3335 34.8711 56.0583C35.0085 56.783 34.9271 57.5318 34.6371 58.211C34.3471 58.8902 33.8613 59.4695 33.2407 59.8766C32.62 60.2837 31.8919 60.5004 31.1475 60.4996C30.6404 60.5058 30.1373 60.4096 29.669 60.2169C29.2006 60.0243 28.7767 59.7392 28.4231 59.379C28.0695 59.0188 27.7937 58.5911 27.6123 58.1219C27.431 57.6527 27.3479 57.1518 27.3682 56.6498ZM33.7471 56.6498C33.7471 55.0634 32.7222 53.8418 31.1475 53.8418C29.5728 53.8418 28.5479 55.0687 28.5479 56.6498C28.5479 58.231 29.5728 59.4843 31.1475 59.4843C32.7222 59.4843 33.7471 58.231 33.7471 56.6498Z" fill="white"/>
<path d="M41.4294 60.3463H38.707V52.9746H41.2853C42.7906 52.9746 43.6927 53.6674 43.6927 54.9048C43.6831 55.2518 43.5694 55.5881 43.3659 55.8707C43.1624 56.1533 42.8784 56.3694 42.5504 56.4912C42.9535 56.5681 43.3166 56.7828 43.5761 57.098C43.8356 57.4131 43.9752 57.8085 43.9703 58.2152C43.9703 59.5795 42.9774 60.3463 41.4294 60.3463ZM39.7533 53.8789V56.0999H41.2159C42.1126 56.0999 42.6037 55.6769 42.6037 54.9894C42.6037 54.3019 42.1126 53.8789 41.2159 53.8789H39.7533ZM39.7533 56.9989V59.4421H41.3547C42.3262 59.4421 42.876 58.982 42.876 58.2046C42.876 57.4273 42.3422 56.9989 41.3547 56.9989H39.7533Z" fill="white"/>
<path d="M47.877 60.3463V52.9746H49.0193V59.3204H52.3875V60.3358L47.877 60.3463Z" fill="white"/>
<path d="M60.8111 60.3463H56.0977V52.9746H60.7363V53.9635H57.2346V56.0788H60.4374V57.0624H57.2346V59.3839H60.8111V60.3463Z" fill="white"/>
<path d="M67.3385 60.4517C65.5503 60.4517 64.4613 59.4733 64.3652 58.0085H65.5289C65.577 58.9392 66.1801 59.5474 67.3171 59.5474C68.2619 59.5474 68.9666 59.1032 68.9666 58.347C68.9666 57.7282 68.5609 57.4215 67.7015 57.2364L66.6339 57.0302C65.5663 56.824 64.6375 56.3004 64.6375 55.0524C64.6375 53.8044 65.7264 52.8525 67.2584 52.8525C68.7904 52.8525 69.9701 53.7885 70.0662 55.2534H68.9132C68.907 55.0482 68.8597 54.8464 68.7739 54.6596C68.6881 54.4728 68.5656 54.3048 68.4135 54.1655C68.2614 54.0262 68.0828 53.9183 67.8882 53.8481C67.6935 53.7779 67.4867 53.7469 67.2798 53.7568C66.3136 53.7568 65.7851 54.3227 65.7851 54.9572C65.7851 55.5918 66.399 55.9038 67.0929 56.0466L68.1925 56.2634C69.463 56.5172 70.1783 57.0725 70.1783 58.1725C70.1783 59.4733 69.1427 60.4517 67.3385 60.4517Z" fill="white"/>
<path d="M78.8477 60.3463V52.9746H79.9846V59.3204H83.3529V60.3358L78.8477 60.3463Z" fill="white"/>
<path d="M87.0625 60.3463V52.9746H88.2048V60.3463H87.0625Z" fill="white"/>
<path d="M93.4582 54.7144V60.3463H92.3906V52.9746H93.7892L96.2873 58.9608L98.7748 52.9746H100.184V60.3463H99.1164V54.7038L96.7517 60.3463H95.7802L93.4582 54.7144Z" fill="white"/>
<path d="M104.406 60.3463V52.9746H105.543V60.3463H104.406Z" fill="white"/>
<path d="M111.564 60.3463V54.0005H109.141V52.9746H115.13V53.9952H112.706V60.341L111.564 60.3463Z" fill="white"/>
<path d="M123.44 60.3463H118.727V52.9746H123.371V53.9635H119.864V56.0788H123.066V57.0624H119.864V59.3839H123.44V60.3463Z" fill="white"/>
<path d="M127.369 60.3463V52.9746H129.713C132.083 52.9746 133.449 54.4765 133.449 56.634C133.475 57.127 133.396 57.6198 133.218 58.0807C133.039 58.5415 132.765 58.96 132.413 59.3091C132.06 59.6581 131.638 59.9299 131.173 60.1067C130.708 60.2836 130.21 60.3616 129.713 60.3358L127.369 60.3463ZM128.511 59.3733H129.67C131.378 59.3733 132.301 58.3157 132.301 56.634C132.301 54.9524 131.389 53.9529 129.67 53.9529H128.511V59.3733Z" fill="white"/>
</svg>
