<svg width="32" height="33" viewBox="0 0 32 33" fill="none" xmlns="http://www.w3.org/2000/svg">
<path d="M16.0271 27.8736C12.9205 27.8736 9.81381 27.3802 6.86714 26.3936C5.74714 26.0069 4.89381 25.2202 4.52048 24.1936C4.13381 23.1669 4.26714 22.0336 4.88048 21.0202L6.41381 18.4736C6.73381 17.9402 7.02714 16.8736 7.02714 16.2469V12.3936C7.02714 7.43355 11.0671 3.39355 16.0271 3.39355C20.9871 3.39355 25.0271 7.43355 25.0271 12.3936V16.2469C25.0271 16.8602 25.3205 17.9402 25.6405 18.4869L27.1605 21.0202C27.7338 21.9802 27.8405 23.1402 27.4538 24.1936C27.0671 25.2469 26.2271 26.0469 25.1738 26.3936C22.2405 27.3802 19.1338 27.8736 16.0271 27.8736ZM16.0271 5.39355C12.1738 5.39355 9.02714 8.52689 9.02714 12.3936V16.2469C9.02714 17.2202 8.62714 18.6602 8.13381 19.5002L6.60048 22.0469C6.30714 22.5402 6.22714 23.0602 6.40048 23.5002C6.56048 23.9536 6.96048 24.3002 7.50714 24.4869C13.0805 26.3536 18.9871 26.3536 24.5605 24.4869C25.0405 24.3269 25.4138 23.9669 25.5871 23.4869C25.7605 23.0069 25.7205 22.4869 25.4538 22.0469L23.9205 19.5002C23.4138 18.6336 23.0271 17.2069 23.0271 16.2336V12.3936C23.0271 8.52689 19.8938 5.39355 16.0271 5.39355Z" fill="#141414"/>
<path d="M18.5062 5.75324C18.4128 5.75324 18.3195 5.73991 18.2262 5.71324C17.8395 5.60658 17.4662 5.52658 17.1062 5.47324C15.9728 5.32658 14.8795 5.40658 13.8528 5.71324C13.4795 5.83324 13.0795 5.71324 12.8262 5.43324C12.5728 5.15324 12.4928 4.75324 12.6395 4.39324C13.1862 2.99324 14.5195 2.07324 16.0395 2.07324C17.5595 2.07324 18.8928 2.97991 19.4395 4.39324C19.5728 4.75324 19.5062 5.15324 19.2528 5.43324C19.0528 5.64658 18.7728 5.75324 18.5062 5.75324Z" fill="#141414"/>
<path d="M16.0273 30.9136C14.7073 30.9136 13.4273 30.3802 12.494 29.4469C11.5607 28.5136 11.0273 27.2336 11.0273 25.9136H13.0273C13.0273 26.7002 13.3473 27.4736 13.9073 28.0336C14.4673 28.5936 15.2407 28.9136 16.0273 28.9136C17.6807 28.9136 19.0273 27.5669 19.0273 25.9136H21.0273C21.0273 28.6736 18.7873 30.9136 16.0273 30.9136Z" fill="#141414"/>
</svg>
