<svg width="100" height="100" viewBox="0 0 100 100" fill="none" xmlns="http://www.w3.org/2000/svg">
<path d="M58.333 83.3333C58.333 83.3333 62.4997 83.3333 66.6663 91.6666C66.6663 91.6666 79.9018 70.8333 91.6663 66.6666" stroke="#B47B2B" stroke-width="4" stroke-linecap="round" stroke-linejoin="round"/>
<path d="M74.9997 58.3333C74.7934 55.7396 74.4851 53.1758 74.143 50.6471C73.2022 43.6875 67.4151 38.2354 60.373 37.9129C54.4468 37.6415 48.4272 37.5 41.798 37.5C35.1692 37.5 29.1495 37.6415 23.2236 37.9129C16.1811 38.2354 10.394 43.6875 9.4533 50.6471C8.83934 55.1888 8.33301 59.8433 8.33301 64.5833C8.33301 69.3233 8.83934 73.9779 9.4533 78.5196C10.394 85.4792 16.1811 90.9313 23.2236 91.2538C29.1495 91.525 35.1692 91.6667 41.798 91.6667C43.893 91.6667 45.9268 91.6525 47.9163 91.6246" stroke="#B47B2B" stroke-width="4" stroke-linecap="round"/>
<path d="M22.917 37.5V27.0834C22.917 16.728 31.3117 8.33337 41.667 8.33337C52.0224 8.33337 60.417 16.728 60.417 27.0834V37.5" stroke="#B47B2B" stroke-width="4" stroke-linecap="round" stroke-linejoin="round"/>
</svg>
