<svg width="100" height="100" viewBox="0 0 100 100" fill="none" xmlns="http://www.w3.org/2000/svg">
<path fill-rule="evenodd" clip-rule="evenodd" d="M29.166 29.1667C29.166 17.6607 38.4934 8.33334 49.9994 8.33334C61.5053 8.33334 70.8327 17.6607 70.8327 29.1667C70.8327 40.6726 61.5053 50 49.9994 50C38.4934 50 29.166 40.6726 29.166 29.1667ZM49.9994 16.6667C43.0958 16.6667 37.4994 22.2631 37.4994 29.1667C37.4994 36.0702 43.0958 41.6667 49.9994 41.6667C56.9029 41.6667 62.4994 36.0702 62.4994 29.1667C62.4994 22.2631 56.9029 16.6667 49.9994 16.6667Z" fill="#B47B2B"/>
<path fill-rule="evenodd" clip-rule="evenodd" d="M27.3136 91.3224C34.2903 94.3759 43.5806 95.8333 49.9993 95.8333C56.4181 95.8333 65.7084 94.3759 72.685 91.3224C76.11 89.8234 79.5933 87.678 81.617 84.5725C82.6814 82.9393 83.3542 81.0155 83.3322 78.8676C83.3103 76.7393 82.61 74.7004 81.433 72.8033C75.7272 63.6068 64.0544 54.1667 49.9993 54.1667C35.9443 54.1667 24.2715 63.6068 18.5657 72.8033C17.3887 74.7004 16.6884 76.7393 16.6665 78.8676C16.6445 81.0155 17.3173 82.9393 18.3817 84.5725C20.4054 87.678 23.8886 89.8234 27.3136 91.3224ZM24.9994 78.9531C25.0026 78.6488 25.0982 78.081 25.6468 77.1967C30.3224 69.6606 39.6479 62.5 49.9993 62.5C60.3507 62.5 69.6763 69.6606 74.3519 77.1967C74.9005 78.081 74.9961 78.6488 74.9993 78.9531C75.0022 79.2377 74.9291 79.572 74.6353 80.0228C73.9429 81.0853 72.2615 82.4112 69.3438 83.6882C63.635 86.1868 55.5275 87.5 49.9993 87.5C44.4712 87.5 36.3637 86.1868 30.6549 83.6882C27.7371 82.4112 26.0558 81.0853 25.3634 80.0228C25.0696 79.572 24.9965 79.2377 24.9994 78.9531Z" fill="#B47B2B"/>
<path d="M94.5664 17.5296C96.1936 15.9024 96.1936 13.2642 94.5664 11.637C92.9393 10.0098 90.3011 10.0098 88.6739 11.637L80.5958 19.7151L79.4213 18.5405C77.7941 16.9133 75.1559 16.9133 73.5287 18.5405C71.9015 20.1677 71.9015 22.8059 73.5287 24.4331L77.6495 28.5539C79.2767 30.1811 81.9149 30.1811 83.5421 28.5539L94.5664 17.5296Z" fill="#B47B2B"/>
</svg>
