<svg width="138" height="67" viewBox="0 0 138 67" fill="none" xmlns="http://www.w3.org/2000/svg">
<path d="M125.186 28.8053C120.889 33.7183 112.519 41.1352 108.361 40.1549C108.116 40.0896 107.889 39.9629 107.695 39.7848C107.502 39.6066 107.348 39.3817 107.245 39.1274C104.822 34.4033 108.313 18.8669 110.251 12.5189C110.784 10.8064 109.893 9.97968 109.61 9.7671C108.542 8.95219 107.181 9.17658 102.441 12.8082C99.9217 14.7333 96.5694 17.5324 92.4806 21.0754C89.8756 23.3548 87.2974 25.6755 85.0875 27.6833C83.8901 28.5449 82.7486 29.4979 81.6712 30.5355C82.0022 28.8761 82.4399 26.9215 83.0004 24.6303C83.8277 21.2467 84.7192 17.9693 85.4024 15.5541C85.967 14.2054 86.3742 12.7826 86.6142 11.3201L83.6035 10.5111C83.6035 10.5466 83.1124 12.1351 82.4292 14.5621C79.0342 22.8293 69.3085 35.2301 65.9136 37.722C65.8251 36.6167 65.7948 35.5066 65.8228 34.3974C65.8228 30.565 65.8655 25.7936 62.3852 25.4689C59.4439 25.209 56.2945 29.0887 52.9637 33.2046C51.4851 35.0352 49.0936 37.9878 47.978 38.5665C47.7271 37.8874 47.2414 35.667 47.7271 29.1537C47.7819 28.4118 47.6133 27.6708 47.2476 27.0461C46.8818 26.4213 46.3395 25.948 45.7052 25.7C45.0708 25.4519 44.3801 25.443 43.7407 25.6746C43.1013 25.9063 42.5491 26.3654 42.1703 26.9806C40.4034 29.88 37.8306 34.1553 35.626 38.0527C35.0382 39.116 34.3836 40.1322 33.6669 41.0938C33.6125 41.1714 33.536 41.2264 33.4498 41.25C33.3636 41.2736 33.2727 41.2643 33.1919 41.2238C33.1044 41.1897 33.0298 41.1239 32.9804 41.0371C32.931 40.9502 32.9096 40.8475 32.9196 40.7454L35.231 0.212585L32.1243 0L30.7951 23.4198L30.6563 23.3784L30.2293 23.2781C27.2347 22.5812 23.1351 21.6246 14.7492 26.52C10.5087 28.9723 6.74949 32.3301 3.68897 36.3993C0.758429 40.4089 -0.485316 44.2118 0.171253 47.1053C0.705049 49.3729 2.9203 51.1208 5.85618 51.5755C6.07504 51.5755 6.33126 51.6345 6.61951 51.6581C10.3561 51.9121 19.8683 50.5185 30.256 32.9507L29.8289 40.5329C29.7752 41.3542 29.9594 42.1731 30.3549 42.8707C30.7503 43.5683 31.3365 44.1084 32.0282 44.4125C32.3873 44.5738 32.7677 44.6695 33.1545 44.696C33.6982 44.7339 34.2423 44.629 34.7423 44.3899C35.2423 44.1508 35.6842 43.7842 36.0317 43.3201C36.8481 42.2338 37.5921 41.0832 38.2576 39.8774C40.3928 36.1217 42.8589 32.0058 44.6151 29.1182C44.0066 37.6334 44.9033 39.9837 45.7574 41.0761C45.9785 41.3707 46.2516 41.6122 46.56 41.7858C46.8684 41.9595 47.2056 42.0616 47.551 42.0859C49.7128 42.2394 51.8961 39.6766 55.2857 35.4958C57.3141 32.9861 60.7037 28.7935 62.1129 28.8938H62.1556C62.7428 29.384 62.7268 32.8798 62.7161 34.3679C62.7161 37.539 62.6894 40.0427 64.2481 41.0938C64.6704 41.3565 65.1494 41.487 65.6337 41.4714C66.118 41.4558 66.5894 41.2947 66.9972 41.0053C69.5434 39.5231 74.844 33.3699 79.3118 26.6617C76.5041 39.0625 77.5663 41.1765 78.8047 42.1804C81.2015 44.1173 88.4664 44.7078 93.2172 41.5131C96.4734 39.3164 97.9199 35.6611 97.2901 31.2205C96.6602 26.7798 94.6211 25.4157 93.0197 25.0142H92.9823C98.7313 19.9476 103.808 15.7372 106.599 13.8535C104.998 19.7586 101.438 34.7281 104.528 40.7927C104.85 41.4675 105.299 42.0578 105.845 42.5234C106.392 42.9891 107.022 43.3192 107.694 43.4913C108.019 43.5678 108.349 43.6171 108.681 43.639C115.898 44.1409 126.238 32.5845 127.444 31.2027L125.186 28.8053ZM30.0265 26.7916C21.1494 43.8693 11.9415 49.0126 6.28322 48.1682C4.27081 47.8611 3.32065 46.8396 3.20321 46.2668C2.35982 42.5642 7.86325 34.4565 16.2332 29.5611C21.3736 26.5554 24.5444 26.018 26.9091 26.1834C27.8187 26.2606 28.7217 26.4145 29.6101 26.644L30.0585 26.7444C30.0592 26.7498 30.059 26.7554 30.0578 26.7607C30.0566 26.766 30.0544 26.771 30.0514 26.7754C30.0485 26.7798 30.0447 26.7835 30.0404 26.7863C30.0361 26.7891 30.0314 26.7909 30.0265 26.7916ZM92.3471 28.3742C92.7101 28.4628 93.8151 28.7344 94.2421 31.7519C94.6691 34.7695 93.8204 37.0666 91.6158 38.5783C88.0234 40.9994 82.2904 40.4738 80.7958 39.4877C80.721 39.2455 80.5823 38.4956 80.7637 36.5351C81.0934 36.0467 81.4499 35.5813 81.8313 35.1415C83.4701 33.612 85.1409 32.0767 86.7956 30.565C88.8294 29.0533 90.9219 28.0258 92.3471 28.3742Z" fill="black"/>
<path d="M135.142 11.0249C135.156 10.8325 135.135 10.6387 135.08 10.4554C135.025 10.2721 134.937 10.103 134.821 9.95843C134.706 9.81382 134.565 9.69667 134.407 9.61406C134.249 9.53145 134.078 9.48509 133.903 9.47778L132.478 9.3833L132.238 13.6822L132.814 13.7236L132.889 12.33L133.658 12.3831L134.368 13.8299L135.014 13.8771L134.25 12.3182C134.502 12.2322 134.723 12.0613 134.883 11.8295C135.043 11.5976 135.133 11.3164 135.142 11.0249ZM132.916 11.7276L133.022 10.0388L133.871 10.0978C134.068 10.1234 134.248 10.2314 134.375 10.3994C134.502 10.5675 134.565 10.7829 134.553 11.0014C134.541 11.2199 134.453 11.4249 134.309 11.5743C134.164 11.7236 133.973 11.806 133.775 11.8044L132.916 11.7276Z" fill="black"/>
<path d="M133.871 6.83221C133.002 6.7722 132.136 6.99868 131.383 7.483C130.631 7.96732 130.024 8.68773 129.642 9.55316C129.259 10.4186 129.117 11.3901 129.233 12.345C129.349 13.2999 129.719 14.1951 130.295 14.9176C130.871 15.6401 131.628 16.1573 132.47 16.4039C133.312 16.6506 134.201 16.6155 135.025 16.3031C135.849 15.9907 136.57 15.4151 137.099 14.649C137.627 13.8829 137.938 12.9608 137.992 11.9992C138.063 10.7102 137.668 9.44293 136.896 8.47461C136.124 7.50629 135.036 6.91576 133.871 6.83221ZM133.338 15.9438C132.578 15.8909 131.85 15.59 131.245 15.0792C130.64 14.5685 130.185 13.8708 129.939 13.0743C129.692 12.2779 129.665 11.4184 129.86 10.6046C130.054 9.79081 130.463 9.05917 131.034 8.50217C131.604 7.94517 132.311 7.58782 133.065 7.47528C133.82 7.36275 134.587 7.50009 135.271 7.86993C135.954 8.23978 136.523 8.82554 136.906 9.55316C137.289 10.2808 137.468 11.1176 137.421 11.9579C137.357 13.0819 136.893 14.132 136.13 14.8788C135.368 15.6256 134.37 16.0085 133.354 15.9438H133.338Z" fill="black"/>
<path d="M2.37061 66.8284V58.5967H4.71931C7.0947 58.5967 8.45588 60.2737 8.45588 62.683C8.482 63.2335 8.40324 63.7838 8.2247 64.2984C8.04616 64.813 7.77183 65.2804 7.41951 65.6701C7.06719 66.0599 6.64474 66.3634 6.17956 66.5609C5.71439 66.7584 5.21688 66.8455 4.71931 66.8166L2.37061 66.8284ZM3.50759 65.7419H4.66593C6.37941 65.7419 7.30288 64.5609 7.30288 62.683C7.30288 60.8052 6.39009 59.6891 4.66593 59.6891H3.50759V65.7419Z" fill="black"/>
<path d="M11.771 61.3721V60.752C12.0053 60.7908 12.2443 60.7319 12.4415 60.5868C12.6388 60.4417 12.7803 60.2207 12.8386 59.9666C12.7627 59.9938 12.6835 60.0077 12.6037 60.008C12.5171 60.0119 12.4307 59.9966 12.3496 59.9628C12.2685 59.9291 12.1943 59.8776 12.1316 59.8115C12.0688 59.7453 12.0187 59.6659 11.9843 59.5779C11.9499 59.49 11.9318 59.3952 11.9311 59.2993C11.9306 59.1917 11.9506 59.0852 11.9897 58.9867C12.0289 58.8882 12.0863 58.7999 12.1583 58.7275C12.2302 58.6551 12.3152 58.6002 12.4076 58.5665C12.4999 58.5328 12.5977 58.5209 12.6945 58.5317C13.2283 58.5317 13.5646 58.9805 13.5646 59.6418C13.5609 59.89 13.5102 60.1346 13.4157 60.3597C13.3212 60.5848 13.185 60.7854 13.0159 60.9485C12.8468 61.1117 12.6486 61.2337 12.4341 61.3066C12.2197 61.3796 11.9937 61.4019 11.771 61.3721Z" fill="black"/>
<path d="M18.5339 60.3977V66.8284H17.4663V58.5967H18.7101L22.5374 64.8561V58.5967H23.605V66.8284H22.452L18.5339 60.3977Z" fill="black"/>
<path d="M27.3682 62.7005C27.3882 61.8773 27.6271 61.079 28.0552 60.4052C28.4832 59.7315 29.0813 59.2124 29.7747 58.9129C30.4681 58.6133 31.2259 58.5466 31.9534 58.721C32.6808 58.8955 33.3457 59.3034 33.8646 59.8938C34.3836 60.4841 34.7337 61.2306 34.8711 62.0399C35.0085 62.8493 34.9271 63.6854 34.6371 64.4438C34.3471 65.2022 33.8613 65.8492 33.2407 66.3038C32.62 66.7583 31.8919 67.0003 31.1475 66.9995C30.6404 67.0063 30.1373 66.8989 29.669 66.6838C29.2006 66.4686 28.7767 66.1503 28.4231 65.7481C28.0695 65.3459 27.7937 64.8683 27.6123 64.3443C27.431 63.8204 27.3479 63.2611 27.3682 62.7005ZM33.7471 62.7005C33.7471 60.929 32.7222 59.5649 31.1475 59.5649C29.5728 59.5649 28.5479 60.9349 28.5479 62.7005C28.5479 64.4662 29.5728 65.8657 31.1475 65.8657C32.7222 65.8657 33.7471 64.4662 33.7471 62.7005Z" fill="black"/>
<path d="M41.4284 66.8284H38.7061V58.5967H41.2843C42.7896 58.5967 43.6917 59.3702 43.6917 60.7521C43.6822 61.1395 43.5684 61.5151 43.3649 61.8306C43.1614 62.1462 42.8775 62.3875 42.5494 62.5236C42.9525 62.6094 43.3156 62.8492 43.5751 63.2011C43.8347 63.553 43.9742 63.9945 43.9693 64.4487C43.9693 65.9722 42.9764 66.8284 41.4284 66.8284ZM39.7523 59.6065V62.0866H41.2149C42.1117 62.0866 42.6028 61.6142 42.6028 60.8465C42.6028 60.0789 42.1117 59.6065 41.2149 59.6065H39.7523ZM39.7523 63.0905V65.8187H41.3537C42.3252 65.8187 42.875 65.3049 42.875 64.4369C42.875 63.5688 42.3412 63.0905 41.3537 63.0905H39.7523Z" fill="black"/>
<path d="M47.877 66.8284V58.5967H49.0193V65.6828H52.3875V66.8166L47.877 66.8284Z" fill="black"/>
<path d="M60.8106 66.8284H56.0972V58.5967H60.7359V59.7009H57.2342V62.063H60.4369V63.1613H57.2342V65.7537H60.8106V66.8284Z" fill="black"/>
<path d="M67.339 66.9466C65.5507 66.9466 64.4618 65.8542 64.3657 64.2184H65.5294C65.5774 65.2578 66.1806 65.9368 67.3176 65.9368C68.2624 65.9368 68.967 65.4408 68.967 64.5964C68.967 63.9055 68.5614 63.563 67.7019 63.3563L66.6344 63.126C65.5668 62.8957 64.638 62.3111 64.638 60.9175C64.638 59.5239 65.7269 58.4609 67.2589 58.4609C68.7909 58.4609 69.9706 59.5061 70.0667 61.1419H68.9137C68.9075 60.9128 68.8602 60.6874 68.7744 60.4788C68.6886 60.2702 68.5661 60.0827 68.414 59.9271C68.2619 59.7715 68.0833 59.651 67.8886 59.5726C67.694 59.4943 67.4872 59.4596 67.2802 59.4707C66.3141 59.4707 65.7856 60.1026 65.7856 60.8112C65.7856 61.5198 66.3995 61.8682 67.0934 62.0276L68.193 62.2697C69.4635 62.5532 70.1788 63.1732 70.1788 64.4015C70.1788 65.8542 69.1432 66.9466 67.339 66.9466Z" fill="black"/>
<path d="M78.8477 66.8284V58.5967H79.9846V65.6828H83.3529V66.8166L78.8477 66.8284Z" fill="black"/>
<path d="M87.0625 66.8284V58.5967H88.2048V66.8284H87.0625Z" fill="black"/>
<path d="M93.4577 60.5395V66.8284H92.3901V58.5967H93.7887L96.2868 65.2813L98.7743 58.5967H100.184V66.8284H99.116V60.5277L96.7512 66.8284H95.7797L93.4577 60.5395Z" fill="black"/>
<path d="M104.406 66.8284V58.5967H105.543V66.8284H104.406Z" fill="black"/>
<path d="M111.564 66.8284V59.7423H109.141V58.5967H115.13V59.7364H112.706V66.8225L111.564 66.8284Z" fill="black"/>
<path d="M123.441 66.8284H118.728V58.5967H123.372V59.7009H119.865V62.063H123.067V63.1613H119.865V65.7537H123.441V66.8284Z" fill="black"/>
<path d="M127.37 66.8284V58.5967H129.713C132.083 58.5967 133.45 60.2737 133.45 62.683C133.476 63.2335 133.397 63.7838 133.218 64.2984C133.04 64.813 132.766 65.2804 132.413 65.6701C132.061 66.0599 131.638 66.3634 131.173 66.5609C130.708 66.7584 130.211 66.8455 129.713 66.8166L127.37 66.8284ZM128.512 65.7419H129.67C131.378 65.7419 132.302 64.5609 132.302 62.683C132.302 60.8052 131.389 59.6891 129.67 59.6891H128.512V65.7419Z" fill="black"/>
</svg>
